<svg width="241" height="293" viewBox="0 0 241 293" fill="none" xmlns="http://www.w3.org/2000/svg">
<path d="M233.469 256.375H7.53125C3.37023 256.375 0 260.472 0 265.531V283.844C0 288.903 3.37023 293 7.53125 293H233.469C237.63 293 241 288.903 241 283.844V265.531C241 260.472 237.63 256.375 233.469 256.375ZM110.406 238.063L105.438 146.5C105.438 146.5 107.68 168.634 105.438 183.125C104.481 189.306 108.241 198.161 108.241 198.161L109.412 219.75L110.406 238.063H210.875L170.202 122.677C167.293 114.432 166.977 105.177 169.312 96.6671L195.812 0L107.518 61.3412C96.3797 69.0792 87.5638 80.938 82.3542 95.1907L30.125 238.063H97.9062H110.406Z" fill="#422B09"/>
<path d="M74.2103 136.476L69.067 156.524L113.887 164.234L74.2103 136.476Z" fill="#121212"/>
<path d="M160.912 132.621L126.378 165.005L167.524 157.295L160.912 132.621Z" fill="#121212"/>
<path d="M96.253 198.161H68.3323L96.253 206.642L124.174 195.076L153.564 206.642L178.546 198.161H149.89L124.174 183.511L96.253 198.161Z" fill="#121212"/>
</svg>
